# xmcd CD database file
#
# Track frame offsets:
#	150
#	20555
#	46625
#	66241
#	103831
#	130369
#	156653
#	181058
#	202677
#	206658
#	230755
#	255946
#
# Disc length: 3714 seconds
#
# Revision: 2
# Processed by: cddbd v1.5.2PL0 Copyright (c) Steve Scherf et al.
# Submitted via: CDex 1.51
#
DISCID=a30e800c
DTITLE=Pinnick Gales Pridgen - PGP2
DYEAR=2014
DGENRE=Hard Rock
TTITLE0=Every Step Of The Way
TTITLE1=It's Not My Time To Die
TTITLE2=Psychofunkadelic Blues
TTITLE3=Watchman
TTITLE4=Have You Cried?
TTITLE5=Like You Used To Do
TTITLE6=Build It Back Up
TTITLE7=The Past Is The Past
TTITLE8=Ladonna
TTITLE9=I Ain't Got No Money
TTITLE10=Down To The Bone
TTITLE11=Jambiance
EXTD=YEAR: 2014
EXTT0=
EXTT1=
EXTT2=
EXTT3=
EXTT4=
EXTT5=
EXTT6=
EXTT7=
EXTT8=
EXTT9=
EXTT10=
EXTT11=
PLAYORDER=
